<?xml version="1.0" standalone="no"?>
<!DOCTYPE svg PUBLIC "-//W3C//DTD SVG 20010904//EN" "http://www.w3.org/TR/2001/REC-SVG-20010904/DTD/svg10.dtd">
<svg version="1.0" xmlns="http://www.w3.org/2000/svg"
	width="512.000000pt" height="512.000000pt" viewBox="0 0 512.000000 512.000000"
	preserveAspectRatio="xMidYMid meet">
	<metadata> Created by potrace 1.14, written by Peter Selinger 2001-2017 </metadata>
	<path fill="#FEFEFE" opacity="1.000000" stroke="none"
		d="
M242.000000,1.000000 
	C251.687561,1.000000 261.375122,1.000000 271.722961,1.387598 
	C281.856628,2.847598 291.388062,3.558092 300.791687,5.065645 
	C322.201050,8.497910 342.785492,14.802190 362.492096,23.904751 
	C384.841553,34.228062 406.057861,46.457291 423.894470,63.588600 
	C436.402069,75.601608 448.646454,88.024025 459.792053,101.285843 
	C474.115479,118.328880 484.537170,137.942413 493.106689,158.497009 
	C502.236816,180.396255 508.518829,203.031998 511.023041,226.673294 
	C511.565521,231.794540 512.335022,236.891724 513.000000,242.000000 
	C513.000000,252.020889 513.000000,262.041779 512.612427,272.722900 
	C511.451355,294.030090 507.169098,314.025085 501.059631,333.686279 
	C492.710693,360.554443 480.134277,385.265259 463.554901,407.995178 
	C449.046875,427.885315 432.022369,445.216095 412.485535,460.216949 
	C394.906433,473.714691 375.860809,484.521759 355.489899,493.103821 
	C333.623169,502.316071 310.931030,508.379089 287.332428,511.023590 
	C282.541290,511.560486 277.776794,512.335022 273.000000,513.000000 
	C262.312439,513.000000 251.624878,513.000000 240.279053,512.613708 
	C225.000793,510.069763 210.144348,508.913940 195.813568,505.531128 
	C171.330017,499.751709 148.229294,490.055115 126.542404,477.136658 
	C98.144531,460.220520 73.830078,438.801880 53.770206,412.459412 
	C40.354488,394.842010 29.445385,375.868561 20.888594,355.488190 
	C11.703637,333.611633 5.620218,310.929138 2.976369,287.331665 
	C2.439602,282.540771 1.664972,277.776520 1.000000,273.000000 
	C1.000000,262.645782 1.000000,252.291550 1.387555,241.277100 
	C2.586923,218.636993 7.331710,197.387909 14.057935,176.564148 
	C20.331139,157.142883 29.206263,138.895950 39.893059,121.512680 
	C56.022701,95.276039 76.749802,73.150284 100.856956,54.219185 
	C118.471848,40.386398 137.852951,29.407944 158.588074,20.817442 
	C180.798447,11.615734 203.768600,5.512360 227.687057,2.971787 
	C232.473846,2.463342 237.229813,1.664787 242.000000,1.000000 
M366.355194,462.645386 
	C366.355194,462.645386 366.345184,462.605804 367.105652,462.842773 
	C368.342468,462.404541 369.682373,462.145508 370.800964,461.501831 
	C399.233093,445.141541 423.739441,424.296997 443.566132,398.036865 
	C473.099152,358.920929 488.345551,314.677094 490.903473,265.959015 
	C491.802643,248.833191 490.248291,231.788300 487.045013,214.926788 
	C476.114868,157.392151 447.773804,110.209694 402.107330,73.659950 
	C362.581970,42.025337 317.024689,25.580387 266.670410,23.314962 
	C250.533646,22.588974 234.066666,23.946545 218.074295,26.432358 
	C190.293503,30.750538 164.120041,40.344593 139.717453,54.591454 
	C115.175690,68.919556 93.755829,86.968315 75.865662,108.934296 
	C59.827389,128.626495 47.123489,150.390686 38.192177,174.326263 
	C29.116192,198.649567 23.919729,223.736435 23.191284,249.606903 
	C22.856251,261.505524 23.881784,273.495209 25.031778,285.371826 
	C27.356489,309.380310 34.061134,332.335022 44.171150,354.142609 
	C64.900627,398.856567 96.574066,433.874420 139.054794,458.987335 
	C141.866943,460.649780 144.999115,461.770844 148.408142,463.657776 
	C150.880981,469.823669 155.281342,473.068665 162.081421,473.082458 
	C165.028702,473.088470 167.974838,473.651031 171.382385,474.520721 
	C198.962769,485.627075 227.677383,491.132629 257.350098,490.849792 
	C269.573090,490.733276 281.874390,489.636139 293.972534,487.850220 
	C310.868011,485.356079 327.460144,481.283936 343.889801,473.781067 
	C346.011017,473.536499 348.128204,473.247711 350.254150,473.055573 
	C356.886719,472.456055 362.955811,470.912140 366.413116,463.704132 
	C366.389465,463.364380 366.365845,463.024658 366.355194,462.645386 
z" />
	<path fill="#FAF7AF" opacity="1.000000" stroke="none"
		d="
M147.982422,463.143738 
	C144.999115,461.770844 141.866943,460.649780 139.054794,458.987335 
	C96.574066,433.874420 64.900627,398.856567 44.171150,354.142609 
	C34.061134,332.335022 27.356489,309.380310 25.031778,285.371826 
	C23.881784,273.495209 22.856251,261.505524 23.191284,249.606903 
	C23.919729,223.736435 29.116192,198.649567 38.192177,174.326263 
	C47.123489,150.390686 59.827389,128.626495 75.865662,108.934296 
	C93.755829,86.968315 115.175690,68.919556 139.717453,54.591454 
	C164.120041,40.344593 190.293503,30.750538 218.074295,26.432358 
	C234.066666,23.946545 250.533646,22.588974 266.670410,23.314962 
	C317.024689,25.580387 362.581970,42.025337 402.107330,73.659950 
	C447.773804,110.209694 476.114868,157.392151 487.045013,214.926788 
	C490.248291,231.788300 491.802643,248.833191 490.903473,265.959015 
	C488.345551,314.677094 473.099152,358.920929 443.566132,398.036865 
	C423.739441,424.296997 399.233093,445.141541 370.800964,461.501831 
	C369.682373,462.145508 368.342468,462.404541 366.772400,462.277222 
	C366.599823,459.900787 366.907257,458.089233 366.898651,456.279175 
	C366.805481,436.694061 366.908386,417.103668 366.465973,397.525818 
	C366.001129,376.954773 365.001190,356.395813 364.430206,335.507874 
	C364.365295,327.475586 364.171051,319.764008 363.816132,312.059784 
	C363.651001,308.475677 363.174011,304.905914 362.913391,300.845825 
	C362.988373,295.416656 362.988373,290.471283 362.988373,284.458313 
	C377.214447,284.458313 391.443085,284.458313 405.861450,284.458313 
	C405.861450,271.862152 405.861450,260.335327 405.861450,248.252670 
	C386.388672,248.252670 367.258301,248.252670 348.111328,247.846100 
	C346.639526,245.020096 345.696198,241.964172 343.630951,240.303345 
	C337.965454,235.747314 331.153625,235.406006 324.183258,236.436707 
	C321.723328,236.800446 319.220856,236.876160 316.252960,237.123840 
	C316.870117,235.950226 316.949768,235.577316 317.180054,235.399765 
	C318.097961,234.692108 319.072571,234.058624 320.008759,233.373886 
	C336.001617,221.677063 344.110870,205.552429 344.798584,186.115677 
	C345.486664,166.669250 336.018372,151.717300 321.013245,140.168655 
	C317.251495,137.273453 316.492065,134.690353 318.242950,130.475052 
	C321.043457,123.732643 323.863403,116.942909 325.891052,109.945976 
	C330.677979,93.427483 332.637970,76.594185 331.131470,59.321819 
	C330.093170,47.417374 327.949066,43.595913 316.285583,40.794758 
	C306.577881,38.463318 299.202606,38.954628 293.543762,48.112877 
	C288.974091,55.508377 284.864136,63.486900 282.287170,71.748573 
	C277.796417,86.145645 274.632202,100.957138 270.938599,115.601662 
	C270.180420,118.607704 269.315155,121.774567 265.589142,121.839844 
	C259.621033,121.944382 253.643188,121.603004 247.672073,121.380211 
	C244.597519,121.265503 242.826324,119.974571 242.795914,116.486771 
	C242.765717,113.022934 242.575150,109.457817 241.728577,106.121414 
	C237.937134,91.178932 234.093719,76.242088 229.797974,61.439915 
	C228.574188,57.223026 226.130188,53.214275 223.605804,49.551075 
	C218.279282,41.821598 208.700699,38.246117 200.432571,40.364929 
	C191.415695,42.675613 186.448822,48.838585 185.030167,59.009705 
	C183.028381,73.361671 184.502090,87.550903 187.870804,101.429153 
	C190.328812,111.555481 194.244537,121.333794 197.636154,131.224136 
	C198.662292,134.216461 198.975388,136.209137 196.011963,138.864731 
	C190.262695,144.016800 184.463562,149.522217 180.281342,155.924042 
	C172.853500,167.293991 171.175064,180.358521 173.122986,193.697342 
	C174.772202,204.990784 177.875534,215.878510 186.007446,224.476471 
	C190.100037,228.803635 194.578430,232.765884 198.782059,236.796951 
	C196.536743,236.796951 194.087860,237.274414 191.910767,236.707718 
	C185.293259,234.985153 179.389893,236.959900 173.653244,239.751221 
	C170.242905,241.410629 167.555908,243.889893 167.417969,248.369522 
	C147.376328,248.497803 127.778008,248.497803 108.183060,248.497803 
	C108.183060,260.515259 108.183060,272.050110 108.183060,284.607361 
	C122.759331,284.607361 136.963730,284.607361 151.737610,284.607361 
	C151.737610,291.076752 151.737610,296.526306 151.555298,302.342834 
	C151.229980,313.532166 151.086960,324.354523 150.881073,335.580078 
	C149.698898,360.428162 148.207642,384.863617 147.583954,409.321198 
	C147.126846,427.247009 147.808380,445.201874 147.982422,463.143738 
z" />
	<path fill="#010101" opacity="1.000000" stroke="none"
		d="
M148.195282,463.400757 
	C147.808380,445.201874 147.126846,427.247009 147.583954,409.321198 
	C148.207642,384.863617 149.698898,360.428162 151.352814,335.617371 
	C186.916321,335.401062 221.945099,335.593048 256.974152,335.688293 
	C292.727661,335.785492 328.481445,335.787750 364.235107,335.831573 
	C365.001190,356.395813 366.001129,376.954773 366.465973,397.525818 
	C366.908386,417.103668 366.805481,436.694061 366.898651,456.279175 
	C366.907257,458.089233 366.599823,459.900787 366.392151,462.158752 
	C366.345184,462.605804 366.355194,462.645386 366.154480,462.828186 
	C365.944336,463.338013 365.934875,463.665039 365.925446,463.992065 
	C362.955811,470.912140 356.886719,472.456055 350.254150,473.055573 
	C348.128204,473.247711 346.011017,473.536499 343.022644,473.797302 
	C309.687073,474.072601 277.218933,474.484924 244.750137,474.540680 
	C220.141006,474.582947 195.531067,474.170746 170.921494,473.960754 
	C167.974838,473.651031 165.028702,473.088470 162.081421,473.082458 
	C155.281342,473.068665 150.880981,469.823669 148.195282,463.400757 
z" />
	<path fill="#F8F5AE" opacity="1.000000" stroke="none"
		d="
M171.151947,474.240723 
	C195.531067,474.170746 220.141006,474.582947 244.750137,474.540680 
	C277.218933,474.484924 309.687073,474.072601 342.622498,473.929016 
	C327.460144,481.283936 310.868011,485.356079 293.972534,487.850220 
	C281.874390,489.636139 269.573090,490.733276 257.350098,490.849792 
	C227.677383,491.132629 198.962769,485.627075 171.151947,474.240723 
z" />
	<path fill="#FAF7AF" opacity="1.000000" stroke="none"
		d="
M366.169281,463.848083 
	C365.934875,463.665039 365.944336,463.338013 366.148010,462.847961 
	C366.365845,463.024658 366.389465,463.364380 366.169281,463.848083 
z" />
	<path fill="#FFFFFE" opacity="1.000000" stroke="none"
		d="
M167.861267,248.241241 
	C167.555908,243.889893 170.242905,241.410629 173.653244,239.751221 
	C179.389893,236.959900 185.293259,234.985153 191.910767,236.707718 
	C194.087860,237.274414 196.536743,236.796951 198.782059,236.796951 
	C194.578430,232.765884 190.100037,228.803635 186.007446,224.476471 
	C177.875534,215.878510 174.772202,204.990784 173.122986,193.697342 
	C171.175064,180.358521 172.853500,167.293991 180.281342,155.924042 
	C184.463562,149.522217 190.262695,144.016800 196.011963,138.864731 
	C198.975388,136.209137 198.662292,134.216461 197.636154,131.224136 
	C194.244537,121.333794 190.328812,111.555481 187.870804,101.429153 
	C184.502090,87.550903 183.028381,73.361671 185.030167,59.009705 
	C186.448822,48.838585 191.415695,42.675613 200.432571,40.364929 
	C208.700699,38.246117 218.279282,41.821598 223.605804,49.551075 
	C226.130188,53.214275 228.574188,57.223026 229.797974,61.439915 
	C234.093719,76.242088 237.937134,91.178932 241.728577,106.121414 
	C242.575150,109.457817 242.765717,113.022934 242.795914,116.486771 
	C242.826324,119.974571 244.597519,121.265503 247.672073,121.380211 
	C253.643188,121.603004 259.621033,121.944382 265.589142,121.839844 
	C269.315155,121.774567 270.180420,118.607704 270.938599,115.601662 
	C274.632202,100.957138 277.796417,86.145645 282.287170,71.748573 
	C284.864136,63.486900 288.974091,55.508377 293.543762,48.112877 
	C299.202606,38.954628 306.577881,38.463318 316.285583,40.794758 
	C327.949066,43.595913 330.093170,47.417374 331.131470,59.321819 
	C332.637970,76.594185 330.677979,93.427483 325.891052,109.945976 
	C323.863403,116.942909 321.043457,123.732643 318.242950,130.475052 
	C316.492065,134.690353 317.251495,137.273453 321.013245,140.168655 
	C336.018372,151.717300 345.486664,166.669250 344.798584,186.115677 
	C344.110870,205.552429 336.001617,221.677063 320.008759,233.373886 
	C319.072571,234.058624 318.097961,234.692108 317.180054,235.399765 
	C316.949768,235.577316 316.870117,235.950226 316.252960,237.123840 
	C319.220856,236.876160 321.723328,236.800446 324.183258,236.436707 
	C331.153625,235.406006 337.965454,235.747314 343.630951,240.303345 
	C345.696198,241.964172 346.639526,245.020096 347.698608,247.969421 
	C288.474213,248.512741 229.645935,248.527618 170.817657,248.527176 
	C169.832199,248.527161 168.846725,248.340698 167.861267,248.241241 
M200.195145,62.587009 
	C196.764694,66.091286 195.802628,70.482170 196.840561,74.978951 
	C199.817383,87.875854 203.022415,100.724586 206.423553,113.516266 
	C207.437561,117.329903 209.165115,121.010338 210.974716,124.542259 
	C213.501404,129.473724 217.400497,130.981537 222.641434,129.567200 
	C230.272507,127.507843 231.953064,126.423836 230.737137,119.661812 
	C227.720795,102.887512 224.505630,86.078972 219.959366,69.675224 
	C217.090973,59.325562 211.129150,57.792862 200.195145,62.587009 
M309.780182,111.250992 
	C311.260895,106.662727 313.102539,102.154625 314.143219,97.468628 
	C316.005493,89.083183 317.966492,80.645874 318.777374,72.124733 
	C319.393524,65.649651 315.319305,61.604885 309.023651,60.208519 
	C303.677277,59.022701 299.875305,61.136139 296.911713,67.357384 
	C295.349304,70.637177 293.814697,74.036827 293.011536,77.552345 
	C290.244751,89.663155 287.616516,101.812874 285.296753,114.016441 
	C283.117767,125.479500 285.130646,127.758972 296.583160,130.243225 
	C300.440033,131.079849 302.259308,129.932388 303.547302,126.769882 
	C305.550720,121.850868 307.489410,116.905510 309.780182,111.250992 
M272.973999,195.412231 
	C278.482758,189.056595 275.479492,183.051529 270.097687,180.076889 
	C263.042786,176.177475 255.618408,175.798843 248.635757,179.553360 
	C245.800400,181.077927 243.274033,184.453705 242.144592,187.548294 
	C240.761169,191.338776 243.336487,194.682159 246.648056,196.717102 
	C255.348541,202.063477 263.985199,201.270508 272.973999,195.412231 
M217.750412,154.689972 
	C214.363281,153.186325 212.647339,155.514206 211.527908,157.892334 
	C209.007645,163.246399 208.868896,168.835770 211.760406,174.089798 
	C212.596848,175.609680 214.650146,177.400558 216.114868,177.374008 
	C217.632339,177.346481 219.585587,175.554123 220.523605,174.027145 
	C223.824097,168.654327 222.685471,159.977402 217.750412,154.689972 
M301.458191,156.292770 
	C297.701263,152.681290 294.819061,152.992035 292.741516,157.562622 
	C290.360474,162.800766 290.392181,168.249023 293.030212,173.365570 
	C293.819855,174.897095 295.840179,176.666061 297.344238,176.710358 
	C298.827698,176.754028 300.987244,175.078445 301.778290,173.588165 
	C304.661865,168.155411 304.564850,162.492081 301.458191,156.292770 
z" />
	<path fill="#030101" opacity="1.000000" stroke="none"
		d="
M167.417969,248.369522 
	C168.846725,248.340698 169.832199,248.527161 170.817657,248.527176 
	C229.645935,248.527618 288.474213,248.512741 347.715210,248.375992 
	C367.258301,248.252670 386.388672,248.252670 405.861450,248.252670 
	C405.861450,260.335327 405.861450,271.862152 405.861450,284.458313 
	C391.443085,284.458313 377.214447,284.458313 362.988373,284.458313 
	C362.988373,290.471283 362.988373,295.416656 362.456146,300.836182 
	C316.680634,301.452515 271.437317,301.593994 226.194016,301.736938 
	C201.375214,301.815369 176.556412,301.896149 151.737610,301.975861 
	C151.737610,296.526306 151.737610,291.076752 151.737610,284.607361 
	C136.963730,284.607361 122.759331,284.607361 108.183060,284.607361 
	C108.183060,272.050110 108.183060,260.515259 108.183060,248.497803 
	C127.778008,248.497803 147.376328,248.497803 167.417969,248.369522 
z" />
	<path fill="#FC0000" opacity="1.000000" stroke="none"
		d="
M151.555298,302.342834 
	C176.556412,301.896149 201.375214,301.815369 226.194016,301.736938 
	C271.437317,301.593994 316.680634,301.452515 362.381165,301.320007 
	C363.174011,304.905914 363.651001,308.475677 363.816132,312.059784 
	C364.171051,319.764008 364.365295,327.475586 364.430206,335.507874 
	C328.481445,335.787750 292.727661,335.785492 256.974152,335.688293 
	C221.945099,335.593048 186.916321,335.401062 151.415680,335.214233 
	C151.086960,324.354523 151.229980,313.532166 151.555298,302.342834 
z" />
	<path fill="#F79DC3" opacity="1.000000" stroke="none"
		d="
M200.524200,62.382317 
	C211.129150,57.792862 217.090973,59.325562 219.959366,69.675224 
	C224.505630,86.078972 227.720795,102.887512 230.737137,119.661812 
	C231.953064,126.423836 230.272507,127.507843 222.641434,129.567200 
	C217.400497,130.981537 213.501404,129.473724 210.974716,124.542259 
	C209.165115,121.010338 207.437561,117.329903 206.423553,113.516266 
	C203.022415,100.724586 199.817383,87.875854 196.840561,74.978951 
	C195.802628,70.482170 196.764694,66.091286 200.524200,62.382317 
z" />
	<path fill="#F79DC3" opacity="1.000000" stroke="none"
		d="
M309.617859,111.611153 
	C307.489410,116.905510 305.550720,121.850868 303.547302,126.769882 
	C302.259308,129.932388 300.440033,131.079849 296.583160,130.243225 
	C285.130646,127.758972 283.117767,125.479500 285.296753,114.016441 
	C287.616516,101.812874 290.244751,89.663155 293.011536,77.552345 
	C293.814697,74.036827 295.349304,70.637177 296.911713,67.357384 
	C299.875305,61.136139 303.677277,59.022701 309.023651,60.208519 
	C315.319305,61.604885 319.393524,65.649651 318.777374,72.124733 
	C317.966492,80.645874 316.005493,89.083183 314.143219,97.468628 
	C313.102539,102.154625 311.260895,106.662727 309.617859,111.611153 
z" />
	<path fill="#F79FC4" opacity="1.000000" stroke="none"
		d="
M272.697510,195.668823 
	C263.985199,201.270508 255.348541,202.063477 246.648056,196.717102 
	C243.336487,194.682159 240.761169,191.338776 242.144592,187.548294 
	C243.274033,184.453705 245.800400,181.077927 248.635757,179.553360 
	C255.618408,175.798843 263.042786,176.177475 270.097687,180.076889 
	C275.479492,183.051529 278.482758,189.056595 272.697510,195.668823 
z" />
	<path fill="#0C0B09" opacity="1.000000" stroke="none"
		d="
M218.069397,154.881989 
	C222.685471,159.977402 223.824097,168.654327 220.523605,174.027145 
	C219.585587,175.554123 217.632339,177.346481 216.114868,177.374008 
	C214.650146,177.400558 212.596848,175.609680 211.760406,174.089798 
	C208.868896,168.835770 209.007645,163.246399 211.527908,157.892334 
	C212.647339,155.514206 214.363281,153.186325 218.069397,154.881989 
z" />
	<path fill="#0C0C09" opacity="1.000000" stroke="none"
		d="
M301.649170,156.609650 
	C304.564850,162.492081 304.661865,168.155411 301.778290,173.588165 
	C300.987244,175.078445 298.827698,176.754028 297.344238,176.710358 
	C295.840179,176.666061 293.819855,174.897095 293.030212,173.365570 
	C290.392181,168.249023 290.360474,162.800766 292.741516,157.562622 
	C294.819061,152.992035 297.701263,152.681290 301.649170,156.609650 
z" />
</svg>